<?xml version="1.0" standalone="no"?>
<!DOCTYPE svg PUBLIC "-//W3C//DTD SVG 20010904//EN"
 "http://www.w3.org/TR/2001/REC-SVG-20010904/DTD/svg10.dtd">
<svg version="1.0" xmlns="http://www.w3.org/2000/svg"
 width="513.000000pt" height="513.000000pt" viewBox="0 0 513.000000 513.000000"
 preserveAspectRatio="xMidYMid meet">
<metadata>
Created by potrace 1.14, written by Peter Selinger 2001-2017
</metadata>
<g transform="translate(0.000000,513.000000) scale(0.100000,-0.100000)"
fill="#000000" stroke="none">
<path d="M2379 5116 c-2 -2 -35 -7 -74 -10 -100 -8 -143 -15 -268 -42 -39 -8
-79 -17 -87 -19 -74 -16 -241 -70 -345 -112 -70 -28 -286 -135 -330 -164 -16
-10 -37 -22 -45 -26 -19 -9 -165 -109 -209 -143 -331 -257 -584 -567 -760
-932 -57 -120 -141 -341 -157 -413 -1 -5 -7 -30 -14 -55 -7 -25 -14 -54 -16
-65 -2 -11 -9 -45 -16 -75 -6 -30 -12 -62 -13 -70 -10 -76 -18 -134 -25 -185
-14 -101 -3 -555 15 -615 2 -8 7 -33 11 -55 25 -170 102 -433 169 -580 66
-146 90 -193 109 -220 11 -16 19 -30 16 -30 -13 -1 152 -246 240 -356 142
-178 366 -382 566 -516 98 -66 218 -136 232 -136 6 0 12 -4 12 -8 0 -7 39 -22
53 -20 4 1 7 -2 7 -7 0 -4 15 -13 33 -21 17 -8 55 -24 82 -36 28 -12 66 -27
85 -34 19 -7 44 -17 55 -22 17 -7 156 -50 178 -55 4 -1 8 -2 10 -4 9 -7 260
-58 327 -65 30 -4 75 -9 100 -12 101 -13 521 -5 597 11 11 2 43 8 70 12 26 3
57 8 68 11 11 2 31 6 45 9 14 3 52 12 85 21 33 8 67 16 75 18 33 7 230 74 259
89 17 9 33 16 36 17 3 0 26 9 52 21 27 12 50 22 53 22 9 2 133 67 180 94 53
31 243 153 250 162 3 3 25 21 50 40 158 122 336 300 446 445 25 33 50 67 57
75 38 47 131 197 168 270 24 47 47 87 50 90 13 10 141 319 138 333 0 1 4 15
10 30 33 86 92 368 107 508 7 68 13 451 7 462 -3 4 -7 38 -9 74 -5 85 -33 247
-64 368 -6 22 -12 47 -14 55 -2 8 -19 60 -37 115 -18 55 -34 102 -34 105 -2 5
-27 65 -45 105 -14 34 -76 159 -90 185 -8 14 -14 27 -15 30 -1 16 -148 243
-204 315 -70 91 -73 94 -121 148 -124 139 -261 264 -400 365 -47 34 -89 66
-95 70 -90 68 -439 248 -520 268 -5 1 -35 11 -65 22 -52 19 -181 59 -221 68
-99 22 -124 27 -224 43 -143 23 -214 29 -396 30 -102 0 -188 -1 -190 -3z"/>
</g>
</svg>
